<?xml version="1.0" encoding="UTF-8" standalone="no"?>
<!-- Created with Inkscape (http://www.inkscape.org/) -->

<svg
   version="1.1"
   id="svg2"
   xml:space="preserve"
   width="257.00797"
   height="257.00815"
   viewBox="0 0 257.00797 257.00815"
   sodipodi:docname="3407373002601b4f79c96cce8bf38ab8.eps"
   xmlns:inkscape="http://www.inkscape.org/namespaces/inkscape"
   xmlns:sodipodi="http://sodipodi.sourceforge.net/DTD/sodipodi-0.dtd"
   xmlns="http://www.w3.org/2000/svg"
   xmlns:svg="http://www.w3.org/2000/svg"><defs
     id="defs6" /><sodipodi:namedview
     id="namedview4"
     pagecolor="#ffffff"
     bordercolor="#666666"
     borderopacity="1.0"
     inkscape:pageshadow="2"
     inkscape:pageopacity="0.0"
     inkscape:pagecheckerboard="0" /><g
     id="g8"
     inkscape:groupmode="layer"
     inkscape:label="ink_ext_XXXXXX"
     transform="matrix(1.3333333,0,0,-1.3333333,-0.77604131,257.57066)"><g
       id="g10"
       transform="scale(0.1)"><path
         d="M 5.82031,1931.78 H 1933.38 V 4.21875 H 5.82031 V 1931.78"
         style="fill:#ffffff;fill-opacity:1;fill-rule:evenodd;stroke:none"
         id="path12" /><path
         d="m 450.625,872.203 62.578,191.837 h 94.516 l 63.656,-191.837 h -71.98 l -11.965,34.555 h -56.551 l -12.008,-34.555 z m 110.039,149.337 -27.309,-76.001 h 52.454 z"
         style="fill:#231f20;fill-opacity:1;fill-rule:evenodd;stroke:none"
         id="path14" /><path
         d="m 1251.27,872.125 62.58,191.835 h 94.52 l 63.65,-191.835 h -71.98 l -11.96,34.559 h -56.55 l -12.01,-34.559 z M 1361.31,1021.46 1334,945.457 h 52.46 z"
         style="fill:#231f20;fill-opacity:1;fill-rule:evenodd;stroke:none"
         id="path16" /><path
         d="m 687.82,872.203 v 191.837 h 136.067 c 15.359,0 27.855,-5.48 37.695,-12.2 9.816,-6.7 18.238,-15.36 21.598,-27.12 4.769,-16.69 3.707,-30.122 0.539,-39.322 -3.172,-9.214 -8.707,-16.941 -16.598,-23.128 -7.898,-6.192 -14.469,-11.067 -29.226,-14.602 5.695,-5.789 5.648,-6.016 12.363,-10.777 9.144,-6.481 17.59,-7.395 48.887,-7.524 l 53.816,-0.019 v -57.145 l -54.188,-0.14 c -58.98,-0.149 -79.734,0.312 -91.035,10.445 -14.207,12.746 -29.656,27.672 -51.129,53.051 v -63.356 z m 68.789,144.027 v -35.367 h 47.954 c 2.562,0 5.355,0.953 8.32,2.856 2.969,1.906 4.59,6.715 4.769,14.426 -0.449,7.345 -2.246,12.195 -5.351,14.555 -3.106,2.36 -5.762,3.53 -7.828,3.53 h -47.864"
         style="fill:#231f20;fill-opacity:1;fill-rule:evenodd;stroke:none"
         id="path18" /><path
         d="m 1905.03,1063.96 h -140.39 c -24.24,0 -38.66,-11.84 -43.23,-35.6 -4.56,-23.72 8.46,-49.751 39.05,-78.094 18.54,-14.739 15.34,-21.727 -9.5,-21 h -32.64 v 0.082 l -17.31,0.019 c -31.3,0.129 -39.74,1.043 -48.88,7.524 -6.72,4.761 -6.67,4.988 -12.37,10.777 14.76,3.535 21.33,8.41 29.22,14.602 7.9,6.187 13.43,13.914 16.61,23.128 3.16,9.2 4.22,22.632 -0.54,39.322 -3.36,11.76 -11.78,20.42 -21.6,27.12 -9.84,6.72 -22.34,12.2 -37.7,12.2 H 1489.69 V 872.203 h 68.78 v 63.356 c 21.48,-25.379 36.93,-40.309 51.14,-53.051 11.29,-10.133 32.06,-10.906 91.03,-10.445 l 10.24,0.082 v -0.02 h 101.22 c 27.4,4.625 41.39,18.773 41.94,42.539 0.49,23.719 -13.21,48.453 -41.94,73.332 -15.67,13.574 -12.56,18.864 10.04,18.864 h 82.89 z m -346.56,-47.73 v -35.367 h 47.96 c 2.57,0 5.36,0.953 8.32,2.856 2.97,1.906 4.59,6.715 4.77,14.426 -0.45,7.345 -2.25,12.195 -5.35,14.555 -3.11,2.36 -5.76,3.53 -7.83,3.53 h -47.87"
         style="fill:#231f20;fill-opacity:1;fill-rule:evenodd;stroke:none"
         id="path20" /><path
         d="m 185.293,1064.04 c -24.246,0 -38.645,-11.84 -43.23,-35.6 -4.543,-23.72 7.707,-50.616 39.046,-78.096 17.805,-15.614 15.336,-20.996 -9.488,-20.996 H 34.1641 V 872.203 H 232.754 c 27.777,0 41.418,18.781 41.93,42.539 0.511,23.707 -13.454,48.164 -41.93,73.332 -15.926,13.286 -12.551,19.546 10.031,18.866 h 85.227 V 872.203 h 61.902 v 134.737 h 86.418 v 57.1 H 185.293"
         style="fill:#231f20;fill-opacity:1;fill-rule:evenodd;stroke:none"
         id="path22" /><path
         d="m 1093.12,1064.04 -17.02,-57 -18.9,57 H 986.219 L 1048.8,872.203 h 61.3 l 20.99,64.09 20.98,-64.09 h 61.31 l 62.57,191.837 h -70.98 l -18.9,-57 -17.02,57 c -25.32,0 -50.61,0 -75.93,0"
         style="fill:#231f20;fill-opacity:1;fill-rule:evenodd;stroke:none"
         id="path24" /></g></g></svg>
